<?xml version="1.0" standalone="no"?>
<!DOCTYPE svg PUBLIC "-//W3C//DTD SVG 20010904//EN"
 "http://www.w3.org/TR/2001/REC-SVG-20010904/DTD/svg10.dtd">
<svg version="1.0" xmlns="http://www.w3.org/2000/svg"
 width="512.000000pt" height="512.000000pt" viewBox="0 0 512.000000 512.000000"
 preserveAspectRatio="xMidYMid meet">

<g transform="translate(0.000000,512.000000) scale(0.100000,-0.100000)"
fill="#000000" stroke="none">
<path d="M1430 4785 c-252 -40 -486 -160 -671 -344 -185 -185 -304 -413 -350
-671 -20 -110 -20 -2310 0 -2420 82 -456 407 -833 836 -969 182 -58 139 -56
1320 -56 1209 0 1144 -3 1345 67 415 145 733 529 802 968 19 124 19 2276 0
2400 -48 303 -224 599 -466 784 -143 110 -294 181 -486 229 -84 21 -103 21
-1165 23 -867 2 -1097 0 -1165 -11z m2264 -443 c278 -78 481 -275 568 -552
l23 -75 0 -1155 0 -1155 -23 -75 c-87 -277 -289 -473 -568 -553 l-79 -22
-1055 0 -1055 0 -79 23 c-278 79 -481 276 -568 552 l-23 75 0 1155 0 1155 23
75 c98 310 350 528 659 569 37 5 525 8 1083 7 l1015 -1 79 -23z"/>
<path d="M3701 3952 c-109 -55 -135 -202 -52 -296 83 -94 266 -61 310 57 14
37 14 122 0 150 -17 32 -60 77 -91 93 -38 20 -126 18 -167 -4z"/>
<path d="M2405 3789 c-353 -48 -673 -245 -867 -533 -102 -153 -161 -293 -195
-463 -23 -119 -23 -347 0 -466 171 -862 1157 -1282 1891 -804 659 430 756
1352 201 1910 -175 175 -401 297 -637 342 -103 20 -300 27 -393 14z m347 -448
c292 -75 514 -297 589 -589 26 -103 26 -281 0 -384 -75 -292 -297 -514 -589
-589 -103 -26 -281 -26 -384 0 -292 75 -514 297 -589 589 -26 103 -26 281 0
384 74 290 295 512 585 588 100 26 287 27 388 1z"/>
</g>
</svg>
