<svg width="11" height="11" viewBox="0 0 11 11" fill="none" xmlns="http://www.w3.org/2000/svg">
<path d="M5.49456 0.083313C2.50456 0.083313 0.083313 2.50998 0.083313 5.49998C0.083313 8.48998 2.50456 10.9166 5.49456 10.9166C8.48998 10.9166 10.9166 8.48998 10.9166 5.49998C10.9166 2.50998 8.48998 0.083313 5.49456 0.083313ZM9.24831 3.33331H7.6504C7.48087 2.66244 7.22983 2.01484 6.9029 1.40498C7.89096 1.74515 8.72353 2.42966 9.24831 3.33331ZM5.49998 1.18831C5.94956 1.83831 6.30165 2.55873 6.53456 3.33331H4.4654C4.69831 2.55873 5.0504 1.83831 5.49998 1.18831ZM1.30748 6.58331C1.22081 6.23665 1.16665 5.87373 1.16665 5.49998C1.16665 5.12623 1.22081 4.76331 1.30748 4.41665H3.13831C3.09498 4.77415 3.06248 5.13165 3.06248 5.49998C3.06248 5.86831 3.09498 6.22581 3.13831 6.58331H1.30748ZM1.75165 7.66665H3.34956C3.5229 8.34373 3.77206 8.99373 4.09706 9.59498C3.10796 9.25667 2.27481 8.57167 1.75165 7.66665ZM3.34956 3.33331H1.75165C2.27481 2.42828 3.10796 1.74329 4.09706 1.40498C3.77013 2.01484 3.51909 2.66244 3.34956 3.33331ZM5.49998 9.81165C5.0504 9.16165 4.69831 8.44123 4.4654 7.66665H6.53456C6.30165 8.44123 5.94956 9.16165 5.49998 9.81165ZM6.76748 6.58331H4.23248C4.18373 6.22581 4.14581 5.86831 4.14581 5.49998C4.14581 5.13165 4.18373 4.76873 4.23248 4.41665H6.76748C6.81623 4.76873 6.85415 5.13165 6.85415 5.49998C6.85415 5.86831 6.81623 6.22581 6.76748 6.58331ZM6.9029 9.59498C7.2279 8.99373 7.47706 8.34373 7.6504 7.66665H9.24831C8.72353 8.5703 7.89096 9.25481 6.9029 9.59498ZM7.86165 6.58331C7.90498 6.22581 7.93748 5.86831 7.93748 5.49998C7.93748 5.13165 7.90498 4.77415 7.86165 4.41665H9.69248C9.77915 4.76331 9.83331 5.12623 9.83331 5.49998C9.83331 5.87373 9.77915 6.23665 9.69248 6.58331H7.86165Z" fill="black"/>
</svg>
