<?xml version="1.0" standalone="no"?>
<!DOCTYPE svg PUBLIC "-//W3C//DTD SVG 20010904//EN"
 "http://www.w3.org/TR/2001/REC-SVG-20010904/DTD/svg10.dtd">
<svg version="1.0" xmlns="http://www.w3.org/2000/svg"
 width="512.000000pt" height="512.000000pt" viewBox="0 0 512.000000 512.000000"
 preserveAspectRatio="xMidYMid meet">

<g transform="translate(0.000000,512.000000) scale(0.100000,-0.100000)"
fill="#000000" stroke="none">
<path d="M2335 4789 c-851 -88 -1583 -657 -1879 -1460 -163 -442 -178 -965
-40 -1417 229 -757 858 -1349 1624 -1530 189 -45 297 -56 520 -56 237 0 353
13 553 64 778 196 1411 823 1612 1596 54 207 69 331 69 574 0 185 -4 247 -22
350 -27 158 -63 296 -108 419 -288 771 -959 1320 -1769 1446 -122 19 -438 27
-560 14z m403 -805 c46 -9 118 -35 180 -65 87 -42 115 -62 185 -132 93 -93
137 -162 180 -280 26 -70 31 -100 34 -207 3 -69 0 -190 -5 -269 -12 -166 -5
-197 50 -231 42 -26 94 -21 212 20 107 38 137 38 178 1 28 -25 33 -36 33 -74
0 -66 -26 -88 -164 -138 -147 -53 -180 -71 -211 -116 -36 -52 -35 -137 2 -217
108 -229 295 -392 526 -455 75 -20 91 -37 77 -78 -20 -54 -130 -104 -287 -128
-54 -8 -94 -47 -114 -109 -9 -29 -24 -63 -33 -75 l-17 -22 -99 17 c-121 19
-235 14 -325 -14 -70 -23 -116 -51 -225 -137 -145 -115 -293 -168 -414 -147
-83 14 -205 75 -296 147 -109 86 -155 114 -225 137 -90 28 -204 33 -325 14
l-99 -17 -17 22 c-9 12 -24 46 -33 75 -20 62 -60 101 -114 109 -157 24 -267
74 -287 128 -14 42 2 58 81 79 199 54 367 186 480 378 80 136 93 222 43 294
-30 45 -57 59 -202 112 -146 53 -172 74 -172 140 0 39 5 50 33 75 41 37 71 37
178 -1 123 -43 171 -47 214 -18 53 36 60 69 48 233 -5 77 -8 196 -5 265 3 107
8 137 34 207 43 118 87 187 180 280 70 70 98 90 185 132 57 28 135 57 173 65
94 19 267 20 363 0z"/>
</g>
</svg>
