<?xml version="1.0" standalone="no"?>
<!DOCTYPE svg PUBLIC "-//W3C//DTD SVG 20010904//EN"
 "http://www.w3.org/TR/2001/REC-SVG-20010904/DTD/svg10.dtd">
<svg version="1.0" xmlns="http://www.w3.org/2000/svg"
 width="512.000000pt" height="512.000000pt" viewBox="0 0 512.000000 512.000000"
 preserveAspectRatio="xMidYMid meet">

<g transform="translate(0.000000,512.000000) scale(0.100000,-0.100000)"
fill="#000000" stroke="none">
<path d="M2345 4790 c-272 -28 -569 -115 -810 -237 -164 -84 -367 -229 -517
-372 -930 -884 -930 -2358 0 -3242 338 -322 751 -523 1222 -595 140 -22 471
-25 605 -6 506 72 943 288 1296 641 345 345 555 761 636 1256 24 153 24 496 0
650 -80 494 -289 908 -631 1251 -138 138 -220 204 -373 305 -259 168 -569 285
-883 334 -128 19 -422 27 -545 15z m165 -1320 c533 -31 963 -131 1338 -311
297 -142 355 -192 355 -304 0 -77 -36 -131 -112 -170 -61 -31 -121 -18 -242
52 -449 258 -1020 378 -1714 359 -321 -8 -544 -30 -836 -82 -168 -31 -202 -28
-256 19 -69 61 -89 145 -54 223 38 84 99 107 396 153 391 60 773 81 1125 61z
m170 -734 c346 -42 611 -114 865 -235 198 -95 262 -143 284 -213 34 -105 -74
-225 -182 -203 -18 4 -71 30 -119 57 -228 131 -489 213 -828 260 -128 17 -204
21 -440 21 -304 1 -477 -13 -712 -56 -158 -28 -218 -29 -255 -1 -100 74 -99
217 2 276 55 32 322 77 575 98 74 6 155 12 180 14 95 8 511 -4 630 -18z m-13
-725 c288 -44 533 -128 719 -246 96 -61 108 -164 29 -234 -57 -49 -100 -44
-238 28 -263 139 -531 195 -922 194 -220 0 -336 -10 -546 -45 -125 -20 -127
-20 -165 -2 -96 47 -111 158 -32 231 37 35 222 68 538 97 114 10 489 -4 617
-23z"/>
</g>
</svg>
