<svg width="14" height="14" viewBox="0 0 14 14" fill="none" xmlns="http://www.w3.org/2000/svg">
<path d="M12.0806 2.13179C12.0806 2.13179 13.2138 1.68992 13.1194 2.76305C13.0879 3.20493 12.8046 4.75149 12.5843 6.42431L11.8288 11.3796C11.8288 11.3796 11.7659 12.1056 11.1992 12.2318C10.6326 12.3581 9.78274 11.79 9.62532 11.6637C9.49941 11.569 7.26448 10.1487 6.47751 9.45432C6.25716 9.26494 6.00533 8.88618 6.50898 8.44431L9.81421 5.28807C10.1919 4.90931 10.5697 4.02556 8.99576 5.09869L4.58882 8.09714C4.58882 8.09714 4.08517 8.41275 3.14084 8.1287L1.09475 7.49744C1.09475 7.49744 0.33927 7.02401 1.62988 6.55055C4.77771 5.0671 8.64952 3.5521 12.0806 2.13179Z" fill="black"/>
</svg>
